# xmcd CD database file
#
# Track frame offsets:
#	150
#	20658
#	43956
#	63686
#	89291
#	111588
#	133738
#	159680
#	182274
#	206360
#	227829
#	251503
#
# Disc length: 3666 seconds
#
# Revision: 0
# Processed by: cddbd v1.5.2PL0 Copyright (c) Steve Scherf et al.
# Submitted via: CDex 1.70beta2
#
DISCID=ab0e500c
DTITLE=the moonchild - abschied
DYEAR=2006
DGENRE=New Age
TTITLE0=intro:gefangen
TTITLE1=hatred
TTITLE2=a short moment
TTITLE3=gitterstäbe
TTITLE4=manchmal
TTITLE5=i'm sorry
TTITLE6=don't love me
TTITLE7=pain
TTITLE8=m.
TTITLE9=with a smile
TTITLE10=here comes the rain again
TTITLE11=Abschied
EXTD=YEAR: 2006
EXTT0=
EXTT1=
EXTT2=
EXTT3=
EXTT4=
EXTT5=
EXTT6=
EXTT7=
EXTT8=
EXTT9=
EXTT10=
EXTT11=
PLAYORDER=
